# File created by Blade
# Date/Time:  Fri Jan 16 19:14:28 2015
# Frame Rate: 120.000 fps
#------------------------------------------------------
:FULLY-SPECIFIED
:DEGREES
969
root 18.910069 35.795492 -22.255841 -168.129840 -0.578597 -178.446220
Spine -25.331588 0.815571 -0.238102
Head 16.164904 -1.074239 0.306948
LeftShoulder -19.784479 -65.773364 65.166812
LeftArm 47.355601 -25.347638 -3.278815
LeftForeArm -17.494876 -0.000000 -1.813012
LeftHand 1.615962 -0.000000 -15.608497
LeftHandThumb1 -26.253704 0.000000 33.147579
RightShoulder -9.472666 19.236178 -45.315750
RightArm 34.822741 47.442297 -12.454123
RightForeArm -50.919622 -0.000000 3.692588
RightHand 9.306142 0.000000 -21.190780
RightHandThumb1 -24.326973 -0.000000 -32.862282
LeftUpLeg -2.053390 7.828664 0.301528
LeftLeg -7.471344 -0.000000 0.000000
LeftFoot -20.104385 28.255240 -16.900246
LeftToeBase 23.099840 -0.000000 -0.000000
RightUpLeg -3.905109 -9.034566 1.122356
RightLeg -4.010578 -0.000000 0.000000
RightFoot -19.271203 -22.369856 20.892462
RightToeBase 22.463670 -0.000000 -0.000000
970
root 18.911175 35.795980 -22.260552 -168.162773 -0.625358 -178.458425
Spine -25.314321 0.885063 -0.283915
Head 16.082673 -1.133125 0.347609
LeftShoulder -19.532008 -65.535679 64.553747
LeftArm 46.751404 -24.974049 -2.872088
LeftForeArm -16.894484 -0.000000 -1.883095
LeftHand 1.604769 -0.000000 -14.809752
LeftHandThumb1 -26.253704 0.000000 33.147579
RightShoulder -9.413508 19.031983 -45.073131
RightArm 34.078061 47.241837 -12.643954
RightForeArm -50.804890 -0.000000 3.570243
RightHand 9.170378 0.000000 -20.992407
RightHandThumb1 -24.326973 -0.000000 -32.862282
LeftUpLeg -2.024116 7.786038 0.305007
LeftLeg -7.462126 -0.000000 0.000000
LeftFoot -20.102026 28.243694 -16.920871
LeftToeBase 23.069805 -0.000000 -0.000000
RightUpLeg -3.861513 -9.048464 1.110871
RightLeg -4.000149 -0.000000 0.000000
RightFoot -19.301637 -22.385197 20.905061
RightToeBase 22.436688 -0.000000 -0.000000
971
root 18.911440 35.796400 -22.264558 -168.188167 -0.685211 -178.464863
Spine -25.331565 0.976541 -0.273837
Head 16.024883 -0.817734 0.503884
LeftShoulder -19.037029 -65.302874 63.652314
LeftArm 46.014312 -24.434027 -2.176928
LeftForeArm -16.426530 -0.000000 -1.941914
LeftHand 1.561973 0.000000 -14.183708
LeftHandThumb1 -26.253704 0.000000 33.147579
RightShoulder -9.390133 18.884063 -44.957116
RightArm 33.566783 47.182016 -12.458191
RightForeArm -50.764337 -0.000000 3.513902
RightHand 8.803081 0.000000 -20.775400
RightHandThumb1 -24.326973 -0.000000 -32.862282
LeftUpLeg -2.011738 7.733459 0.313846
LeftLeg -7.438475 -0.000000 0.000000
LeftFoot -20.107228 28.234708 -16.929489
LeftToeBase 23.091317 -0.000000 -0.000000
RightUpLeg -3.824986 -9.062964 1.106736
RightLeg -3.995750 -0.000000 0.000000
RightFoot -19.328246 -22.417565 20.939171
RightToeBase 22.420156 -0.000000 -0.000000
972
root 18.912373 35.796681 -22.267604 -168.212118 -0.743271 -178.471740
Spine -25.317177 1.051149 -0.314007
Head 15.952288 -0.853762 0.545730
LeftShoulder -18.753706 -65.083984 63.032144
LeftArm 45.322510 -23.973225 -1.677192
LeftForeArm -15.746107 -0.000000 -2.018375
LeftHand 1.592657 -0.000000 -13.786295
LeftHandThumb1 -26.253704 0.000000 33.147579
RightShoulder -9.378393 18.735892 -44.738748
RightArm 32.903731 47.086171 -12.460060
RightForeArm -50.628396 0.000000 3.486756
RightHand 8.786046 -0.000000 -20.324820
RightHandThumb1 -24.326973 -0.000000 -32.862282
LeftUpLeg -2.000788 7.670257 0.324036
LeftLeg -7.418928 -0.000000 0.000000
LeftFoot -20.111186 28.240500 -16.925422
LeftToeBase 23.046328 -0.000000 -0.000000
RightUpLeg -3.799376 -9.094069 1.105126
RightLeg -3.974338 -0.000000 0.000000
RightFoot -19.360162 -22.431181 20.956540
RightToeBase 22.459414 -0.000000 -0.000000
973
root 18.912967 35.797806 -22.270531 -168.245113 -0.816224 -178.481117
Spine -25.291210 1.102020 -0.364551
Head 15.905583 -0.968632 0.584804
LeftShoulder -18.488053 -64.815692 62.407704
LeftArm 44.697707 -23.630769 -1.308480
LeftForeArm -14.906510 -0.000000 -2.042672
LeftHand 2.021790 -0.000000 -13.488222
LeftHandThumb1 -26.253704 0.000000 33.147579
RightShoulder -9.396558 18.591671 -44.458031
RightArm 32.443293 47.064443 -12.366996
RightForeArm -50.690601 -0.000000 3.274737
RightHand 8.682611 0.000000 -20.053060
RightHandThumb1 -24.326973 -0.000000 -32.862282
LeftUpLeg -1.985345 7.597942 0.333565
LeftLeg -7.392775 -0.000000 0.000000
LeftFoot -20.118305 28.240604 -16.951041
LeftToeBase 23.013923 -0.000000 -0.000000
RightUpLeg -3.764683 -9.114980 1.101997
RightLeg -3.953699 -0.000000 0.000000
RightFoot -19.403260 -22.485393 20.998345
RightToeBase 22.434760 -0.000000 -0.000000
974
root 18.913180 35.798382 -22.272914 -168.269732 -0.886643 -178.495176
Spine -25.273004 1.144396 -0.412928
Head 15.834568 -1.060634 0.656491
LeftShoulder -18.248689 -64.559249 61.810098
LeftArm 44.066016 -23.285551 -0.967507
LeftForeArm -13.979818 -0.000000 -2.041671
LeftHand 1.897614 -0.000000 -13.480824
LeftHandThumb1 -26.253704 0.000000 33.147579
RightShoulder -9.373691 18.537753 -44.196865
RightArm 31.814201 46.950495 -12.342517
RightForeArm -50.665402 -0.000000 3.260249
RightHand 8.641796 -0.000000 -19.519723
RightHandThumb1 -24.326973 -0.000000 -32.862282
LeftUpLeg -1.984737 7.540272 0.336857
LeftLeg -7.355437 -0.000000 0.000000
LeftFoot -20.106987 28.217761 -16.937073
LeftToeBase 23.015164 -0.000000 -0.000000
RightUpLeg -3.736480 -9.165141 1.096159
RightLeg -3.938390 -0.000000 0.000000
RightFoot -19.427383 -22.496416 21.013887
RightToeBase 22.428451 -0.000000 -0.000000
975
root 18.915915 35.799054 -22.272803 -168.295911 -0.951691 -178.507974
Spine -25.245955 1.169542 -0.459616
Head 15.792008 -1.128096 0.710239
LeftShoulder -18.005224 -64.303493 61.219852
LeftArm 43.403082 -22.919596 -0.607523
LeftForeArm -12.927499 0.000000 -2.006771
LeftHand 2.158037 -0.000000 -12.965502
LeftHandThumb1 -26.253704 0.000000 33.147579
RightShoulder -9.368372 18.458423 -43.914373
RightArm 31.251976 46.952979 -12.229632
RightForeArm -50.616650 -0.000000 3.317010
RightHand 8.471420 0.000000 -18.850878
RightHandThumb1 -24.326973 -0.000000 -32.862282
LeftUpLeg -1.984038 7.488096 0.343141
LeftLeg -7.323013 -0.000000 0.000000
LeftFoot -20.117489 28.203814 -16.951352
LeftToeBase 23.038884 -0.000000 -0.000000
RightUpLeg -3.712331 -9.173023 1.087698
RightLeg -3.917503 -0.000000 0.000000
RightFoot -19.455912 -22.534475 21.025885
RightToeBase 22.401540 -0.000000 -0.000000
976
root 18.917424 35.799556 -22.275027 -168.320342 -1.025411 -178.518647
Spine -25.231961 1.211579 -0.495437
Head 15.744482 -1.228879 0.746229
LeftShoulder -17.723384 -63.962323 60.498980
LeftArm 42.855070 -22.664324 -0.324236
LeftForeArm -11.686516 -0.000000 -1.947366
LeftHand 2.316020 -0.000000 -12.757007
LeftHandThumb1 -26.253704 0.000000 33.147579
RightShoulder -9.335682 18.283238 -43.587384
RightArm 30.566199 46.886020 -12.345018
RightForeArm -50.453873 -0.000000 3.351127
RightHand 8.076097 0.000000 -18.275657
RightHandThumb1 -24.326973 -0.000000 -32.862282
LeftUpLeg -1.977601 7.437048 0.350671
LeftLeg -7.301786 -0.000000 0.000000
LeftFoot -20.103671 28.188284 -16.948231
LeftToeBase 23.016277 -0.000000 -0.000000
RightUpLeg -3.685313 -9.211767 1.085791
RightLeg -3.898144 -0.000000 0.000000
RightFoot -19.482677 -22.558134 21.043210
RightToeBase 22.387442 -0.000000 -0.000000
977
root 18.919291 35.799237 -22.276553 -168.338349 -1.100840 -178.526990
Spine -25.214641 1.249230 -0.542759
Head 15.691337 -1.338197 0.792783
LeftShoulder -17.510949 -63.573687 59.801751
LeftArm 42.424020 -22.454851 -0.100013
LeftForeArm -10.454549 -0.000000 -1.957601
LeftHand 1.913699 -0.000000 -12.999941
LeftHandThumb1 -26.253704 0.000000 33.147579
RightShoulder -9.347699 18.307966 -43.334192
RightArm 29.939465 46.718971 -12.272391
RightForeArm -50.270521 -0.000000 3.444948
RightHand 7.921633 0.000000 -17.735101
RightHandThumb1 -24.326973 -0.000000 -32.862282
LeftUpLeg -1.972800 7.386098 0.360294
LeftLeg -7.289522 -0.000000 0.000000
LeftFoot -20.100371 28.163754 -16.927817
LeftToeBase 23.057316 -0.000000 -0.000000
RightUpLeg -3.660581 -9.253093 1.085408
RightLeg -3.888379 -0.000000 0.000000
RightFoot -19.510195 -22.570372 21.050367
RightToeBase 22.418240 -0.000000 -0.000000
978
root 18.921009 35.799693 -22.277042 -168.356544 -1.169792 -178.536826
Spine -25.197798 1.296153 -0.567504
Head 15.663204 -1.473474 0.763962
LeftShoulder -17.304757 -63.159102 59.067277
LeftArm 41.961378 -22.124397 0.220839
LeftForeArm -9.267415 -0.000000 -1.959670
LeftHand 2.241318 -0.000000 -12.568825
LeftHandThumb1 -26.253704 0.000000 33.147579
RightShoulder -9.505701 18.392158 -43.141149
RightArm 29.699913 46.560594 -11.886024
RightForeArm -50.350558 -0.000000 3.430350
RightHand 7.810791 -0.000000 -17.455793
RightHandThumb1 -24.326973 -0.000000 -32.862282
LeftUpLeg -1.966739 7.345474 0.367130
LeftLeg -7.282406 -0.000000 0.000000
LeftFoot -20.085126 28.130618 -16.933808
LeftToeBase 23.049910 -0.000000 -0.000000
RightUpLeg -3.643416 -9.293865 1.088589
RightLeg -3.871305 -0.000000 0.000000
RightFoot -19.538326 -22.611277 21.054803
RightToeBase 22.380654 -0.000000 -0.000000
979
root 18.923097 35.798171 -22.278680 -168.353630 -1.253865 -178.545327
Spine -25.212411 1.300341 -0.596843
Head 15.585506 -1.547663 0.823688
LeftShoulder -17.212813 -62.777669 58.497342
LeftArm 41.489397 -21.791103 0.423751
LeftForeArm -7.864624 -0.000000 -1.877852
LeftHand 2.711278 -0.000000 -12.434917
LeftHandThumb1 -26.253704 0.000000 33.147579
RightShoulder -9.498855 18.404828 -42.888626
RightArm 29.040480 46.294700 -11.900758
RightForeArm -50.171969 -0.000000 3.447121
RightHand 7.432638 -0.000000 -16.921209
RightHandThumb1 -24.326973 -0.000000 -32.862282
LeftUpLeg -1.982518 7.282586 0.375740
LeftLeg -7.271723 -0.000000 0.000000
LeftFoot -20.088010 28.120582 -16.894633
LeftToeBase 23.104861 -0.000000 -0.000000
RightUpLeg -3.637311 -9.364391 1.097896
RightLeg -3.865403 -0.000000 0.000000
RightFoot -19.565524 -22.613354 21.047416
RightToeBase 22.397364 -0.000000 -0.000000
980
root 18.924204 35.796944 -22.279034 -168.357350 -1.317616 -178.543797
Spine -25.212704 1.331331 -0.604349
Head 15.570401 -1.643544 0.831850
LeftShoulder -17.084538 -62.458377 57.860932
LeftArm 40.974170 -21.156858 0.879579
LeftForeArm -6.625213 -0.000000 -1.870028
LeftHand 2.705479 -0.000000 -12.022692
LeftHandThumb1 -26.253704 0.000000 33.147579
RightShoulder -9.487260 18.322700 -42.617628
RightArm 28.355649 46.209243 -11.895085
RightForeArm -50.174712 -0.000000 3.551625
RightHand 6.820102 0.000000 -16.220981
RightHandThumb1 -24.326973 -0.000000 -32.862282
LeftUpLeg -1.972390 7.224444 0.389005
LeftLeg -7.299458 -0.000000 0.000000
LeftFoot -20.074152 28.134213 -16.872547
LeftToeBase 23.124137 -0.000000 -0.000000
RightUpLeg -3.625383 -9.403675 1.109866
RightLeg -3.865854 -0.000000 0.000000
RightFoot -19.583407 -22.642561 21.037264
RightToeBase 22.360532 -0.000000 -0.000000
